# xmcd CD database file
#
# Track frame offsets:
#	150
#	14387
#	35127
#	53530
#	68512
#	84965
#	100977
#	123537
#	144185
#	157682
#	170127
#	182585
#
# Disc length: 2651 seconds
#
# Revision: 2
# Processed by: cddbd v1.5.1PL0 Copyright (c) Steve Scherf et al.
# Submitted via: CDex 1.51
#
DISCID=900a590c
DTITLE=Carole King - Writer
DYEAR=1970
DGENRE=Pop
TTITLE0=Spaceship Races
TTITLE1=No Easy Way Down
TTITLE2=Child Of Mine
TTITLE3=Goin' Back
TTITLE4=To Love
TTITLE5=What Have You Got To Lose
TTITLE6=Eventually
TTITLE7=Raspberry Jam
TTITLE8=Can't You Be Real
TTITLE9=I Can't Hear You No More
TTITLE10=Sweet Sweetheart
TTITLE11=Up On The Roof
EXTD=YEAR: 1970
EXTT0=
EXTT1=
EXTT2=
EXTT3=
EXTT4=
EXTT5=
EXTT6=
EXTT7=
EXTT8=
EXTT9=
EXTT10=
EXTT11=
PLAYORDER=
